<svg width="116" height="81" viewBox="0 0 116 81" fill="none" xmlns="http://www.w3.org/2000/svg">
<rect x="52.3771" y="20.8537" width="37.8278" height="37.8278" fill="#FFDE00"/>
<path d="M17.4444 59.3734C12.9277 59.3734 9.19345 58.3243 6.24159 56.226C3.32529 54.0921 1.74267 50.9802 1.49371 46.8902H14.0836C14.2614 49.0597 15.2217 50.1444 16.9643 50.1444C17.6045 50.1444 18.138 50.0022 18.5647 49.7176C19.0271 49.3976 19.2582 48.9174 19.2582 48.2773C19.2582 47.3882 18.7781 46.6769 17.8179 46.1434C16.8576 45.5744 15.3639 44.9342 13.3367 44.2229C10.9183 43.3694 8.90894 42.5336 7.30853 41.7156C5.74368 40.8976 4.39223 39.7062 3.25416 38.1414C2.11609 36.5765 1.56484 34.5671 1.60041 32.1132C1.60041 29.6592 2.22279 27.5787 3.46755 25.8716C4.74788 24.1289 6.47276 22.813 8.6422 21.9239C10.8472 21.0348 13.3189 20.5902 16.0574 20.5902C20.6808 20.5902 24.344 21.6572 27.0469 23.791C29.7854 25.9249 31.2257 28.9301 31.368 32.8067H18.6181C18.5825 31.7397 18.3158 30.9751 17.8179 30.5127C17.32 30.0504 16.7154 29.8192 16.0041 29.8192C15.5062 29.8192 15.0972 29.9971 14.7771 30.3527C14.457 30.6728 14.297 31.1351 14.297 31.7397C14.297 32.5933 14.7593 33.3046 15.684 33.8736C16.6442 34.4071 18.1557 35.065 20.2185 35.8474C22.6013 36.7366 24.5574 37.5901 26.0866 38.4081C27.6515 39.2261 29.0029 40.3641 30.141 41.8223C31.2791 43.2804 31.8481 45.112 31.8481 47.317C31.8481 49.6287 31.2791 51.7093 30.141 53.5586C29.0029 55.3724 27.3492 56.795 25.1797 57.8264C23.0103 58.8577 20.4319 59.3734 17.4444 59.3734ZM51.7465 21.2304C55.6942 21.2304 59.144 22.0306 62.0958 23.631C65.0832 25.2314 67.3772 27.4542 68.9776 30.2994C70.578 33.1445 71.3782 36.3809 71.3782 40.0085C71.3782 43.6005 70.578 46.8369 68.9776 49.7176C67.3772 52.5984 65.0832 54.8745 62.0958 56.546C59.144 58.182 55.6942 59 51.7465 59H36.0092V21.2304H51.7465ZM50.6796 48.4373C53.3469 48.4373 55.463 47.7082 57.0279 46.2501C58.5927 44.7919 59.3751 42.7114 59.3751 40.0085C59.3751 37.3056 58.5927 35.2251 57.0279 33.7669C55.463 32.3088 53.3469 31.5797 50.6796 31.5797H47.8522V48.4373H50.6796ZM100.514 65.1349L96.8868 59.16C96.0688 59.3023 95.1263 59.3734 94.0594 59.3734C90.5029 59.3734 87.231 58.5377 84.2435 56.8661C81.2917 55.1946 78.9444 52.8829 77.2017 49.931C75.4591 46.9792 74.5877 43.6539 74.5877 39.9551C74.5877 36.2564 75.4591 32.9311 77.2017 29.9793C78.9444 27.0274 81.2917 24.7335 84.2435 23.0975C87.231 21.426 90.5029 20.5902 94.0594 20.5902C97.6158 20.5902 100.87 21.426 103.822 23.0975C106.774 24.7335 109.103 27.0274 110.81 29.9793C112.553 32.9311 113.424 36.2564 113.424 39.9551C113.424 42.9781 112.837 45.77 111.664 48.3306C110.49 50.8557 108.872 53.0074 106.809 54.7856L114.491 65.1349H100.514ZM86.6441 39.9551C86.6441 42.5158 87.2843 44.5608 88.5646 46.09C89.845 47.5838 91.6765 48.3306 94.0594 48.3306C96.4066 48.3306 98.2204 47.5838 99.5008 46.09C100.781 44.5608 101.421 42.5158 101.421 39.9551C101.421 37.3589 100.781 35.314 99.5008 33.8203C98.2204 32.291 96.4066 31.5263 94.0594 31.5263C91.6765 31.5263 89.845 32.291 88.5646 33.8203C87.2843 35.314 86.6441 37.3589 86.6441 39.9551Z" fill="black"/>
</svg>
